<svg width="901" height="946" viewBox="0 0 901 946" fill="none" xmlns="http://www.w3.org/2000/svg">
<path fill-rule="evenodd" clip-rule="evenodd" d="M604.411 872.679C514.136 905.657 415.674 908.867 323.444 881.837C231.213 854.808 150.059 798.959 91.8655 722.47C33.6722 645.98 1.49675 552.868 0.0509476 456.769C-1.39485 360.67 27.9649 266.633 83.8309 188.428C139.697 110.222 219.134 51.9573 310.51 22.1654C401.886 -7.62659 500.4 -7.38055 591.625 22.8675C682.851 53.1154 761.996 111.776 817.471 190.26C872.946 268.743 901.835 362.926 899.91 459.017L899.614 459.011C899.164 458.198 898.591 457.433 897.896 456.745L820.784 380.354C816.983 376.588 810.891 376.482 806.961 380.113L727.229 453.766C726.646 454.304 726.142 454.896 725.717 455.526L725.518 455.522C726.458 397.126 708.247 338.891 674.519 291.204C640.603 243.251 592.225 207.416 536.469 188.948C480.712 170.48 420.508 170.348 364.672 188.573C308.836 206.798 260.301 242.421 226.176 290.225C192.051 338.03 174.129 395.505 175.033 454.233C175.937 512.961 195.62 569.857 231.201 616.589C266.781 663.32 316.389 697.433 372.759 713.93C429.096 730.417 489.229 728.445 544.362 708.304L604.411 872.679Z" fill="#272660" fill-opacity="0.99"/>
<g style="mix-blend-mode:darken">
<path d="M806.961 410.113C810.891 406.482 816.983 406.588 820.784 410.354L897.897 486.745C901.944 490.754 901.829 497.329 897.644 501.194L817.913 574.847C813.983 578.478 807.891 578.372 804.09 574.606L726.977 498.215C722.93 494.206 723.045 487.631 727.229 483.766L806.961 410.113Z" fill="#29AAE1"/>
</g>
<path d="M565.698 707.998C564.47 704.572 567.198 701.024 570.824 701.329L702.583 712.421C706.177 712.724 708.278 716.617 706.558 719.788L629.608 861.617C627.547 865.416 621.964 864.988 620.506 860.92L565.698 707.998Z" fill="#2B3D91" fill-opacity="0.988235"/>
<path d="M649.537 875.601C645.102 877.706 640.606 872.825 643.067 868.577L723.937 729.012C725.802 725.793 730.404 725.666 732.444 728.777L783.052 805.95C784.716 808.486 783.755 811.908 781.015 813.209L649.537 875.601Z" fill="#1F76BB" fill-opacity="0.988235"/>
<path d="M786.926 829.951C789.24 828.843 792.017 829.666 793.353 831.856L857.821 937.507C860.196 941.398 856.55 946.178 852.17 944.916L674.132 893.638C669.714 892.366 669.21 886.309 673.356 884.324L786.926 829.951Z" fill="#29AAE1" fill-opacity="0.988235"/>
</svg>
